<svg xmlns="http://www.w3.org/2000/svg" width="175" height="207" viewBox="0 0 175 207">
  <g id="design_1" data-name="design 1" transform="translate(-99 -1852)">
    <g id="Group_18" data-name="Group 18">
      <circle id="Ellipse_28" data-name="Ellipse 28" cx="2.5" cy="2.5" r="2.5" transform="translate(99 1903)" fill="#ff9c9c"/>
      <circle id="Ellipse_38" data-name="Ellipse 38" cx="2.5" cy="2.5" r="2.5" transform="translate(99 1903)" fill="#ff9c9c"/>
      <circle id="Ellipse_48" data-name="Ellipse 48" cx="2.5" cy="2.5" r="2.5" transform="translate(99 1919)" fill="#ff9c9c"/>
      <circle id="Ellipse_58" data-name="Ellipse 58" cx="2.5" cy="2.5" r="2.5" transform="translate(99 1936)" fill="#ff9c9c"/>
      <circle id="Ellipse_68" data-name="Ellipse 68" cx="2.5" cy="2.5" r="2.5" transform="translate(99 1953)" fill="#ff9c9c"/>
      <circle id="Ellipse_78" data-name="Ellipse 78" cx="2.5" cy="2.5" r="2.5" transform="translate(99 1970)" fill="#ff9c9c"/>
      <circle id="Ellipse_88" data-name="Ellipse 88" cx="2.5" cy="2.5" r="2.5" transform="translate(99 1987)" fill="#ff9c9c"/>
      <circle id="Ellipse_98" data-name="Ellipse 98" cx="2.5" cy="2.5" r="2.5" transform="translate(99 2004)" fill="#ff9c9c"/>
      <circle id="Ellipse_108" data-name="Ellipse 108" cx="2.5" cy="2.5" r="2.5" transform="translate(99 2020)" fill="#ff9c9c"/>
      <circle id="Ellipse_118" data-name="Ellipse 118" cx="2.5" cy="2.5" r="2.5" transform="translate(99 2037)" fill="#ff9c9c"/>
      <circle id="Ellipse_128" data-name="Ellipse 128" cx="2.5" cy="2.5" r="2.5" transform="translate(99 2054)" fill="#ff9c9c"/>
      <circle id="Ellipse_138" data-name="Ellipse 138" cx="2.5" cy="2.5" r="2.5" transform="translate(99 1886)" fill="#ff9c9c"/>
      <circle id="Ellipse_148" data-name="Ellipse 148" cx="2.5" cy="2.5" r="2.5" transform="translate(99 1886)" fill="#ff9c9c"/>
      <circle id="Ellipse_158" data-name="Ellipse 158" cx="2.5" cy="2.5" r="2.5" transform="translate(99 1869)" fill="#ff9c9c"/>
      <circle id="Ellipse_168" data-name="Ellipse 168" cx="2.5" cy="2.5" r="2.5" transform="translate(99 1869)" fill="#ff9c9c"/>
      <circle id="Ellipse_178" data-name="Ellipse 178" cx="2.5" cy="2.5" r="2.5" transform="translate(99 1852)" fill="#ff9c9c"/>
      <circle id="Ellipse_188" data-name="Ellipse 188" cx="2.5" cy="2.5" r="2.5" transform="translate(99 1852)" fill="#ff9c9c"/>
    </g>
    <g id="Group_19" data-name="Group 19" transform="translate(3)">
      <circle id="Ellipse_29" data-name="Ellipse 29" cx="2.5" cy="2.5" r="2.5" transform="translate(115 1903)" fill="#ff9c9c"/>
      <circle id="Ellipse_39" data-name="Ellipse 39" cx="2.5" cy="2.5" r="2.5" transform="translate(115 1903)" fill="#ff9c9c"/>
      <circle id="Ellipse_49" data-name="Ellipse 49" cx="2.5" cy="2.5" r="2.5" transform="translate(115 1919)" fill="#ff9c9c"/>
      <circle id="Ellipse_59" data-name="Ellipse 59" cx="2.5" cy="2.5" r="2.5" transform="translate(115 1936)" fill="#ff9c9c"/>
      <circle id="Ellipse_69" data-name="Ellipse 69" cx="2.5" cy="2.5" r="2.5" transform="translate(115 1953)" fill="#ff9c9c"/>
      <circle id="Ellipse_79" data-name="Ellipse 79" cx="2.5" cy="2.5" r="2.5" transform="translate(115 1970)" fill="#ff9c9c"/>
      <circle id="Ellipse_89" data-name="Ellipse 89" cx="2.5" cy="2.5" r="2.5" transform="translate(115 1987)" fill="#ff9c9c"/>
      <circle id="Ellipse_99" data-name="Ellipse 99" cx="2.5" cy="2.5" r="2.5" transform="translate(115 2004)" fill="#ff9c9c"/>
      <circle id="Ellipse_109" data-name="Ellipse 109" cx="2.5" cy="2.5" r="2.5" transform="translate(115 2020)" fill="#ff9c9c"/>
      <circle id="Ellipse_119" data-name="Ellipse 119" cx="2.5" cy="2.5" r="2.5" transform="translate(115 2037)" fill="#ff9c9c"/>
      <circle id="Ellipse_129" data-name="Ellipse 129" cx="2.5" cy="2.5" r="2.5" transform="translate(115 2054)" fill="#ff9c9c"/>
      <circle id="Ellipse_139" data-name="Ellipse 139" cx="2.5" cy="2.5" r="2.5" transform="translate(115 1886)" fill="#ff9c9c"/>
      <circle id="Ellipse_149" data-name="Ellipse 149" cx="2.5" cy="2.5" r="2.5" transform="translate(115 1886)" fill="#ff9c9c"/>
      <circle id="Ellipse_159" data-name="Ellipse 159" cx="2.5" cy="2.5" r="2.5" transform="translate(115 1869)" fill="#ff9c9c"/>
      <circle id="Ellipse_169" data-name="Ellipse 169" cx="2.5" cy="2.5" r="2.5" transform="translate(115 1869)" fill="#ff9c9c"/>
      <circle id="Ellipse_179" data-name="Ellipse 179" cx="2.5" cy="2.5" r="2.5" transform="translate(115 1852)" fill="#ff9c9c"/>
      <circle id="Ellipse_189" data-name="Ellipse 189" cx="2.5" cy="2.5" r="2.5" transform="translate(115 1852)" fill="#ff9c9c"/>
    </g>
    <g id="Group_20" data-name="Group 20" transform="translate(7)">
      <circle id="Ellipse_30" data-name="Ellipse 30" cx="2.5" cy="2.5" r="2.5" transform="translate(130 1903)" fill="#ff9c9c"/>
      <circle id="Ellipse_40" data-name="Ellipse 40" cx="2.5" cy="2.5" r="2.5" transform="translate(130 1903)" fill="#ff9c9c"/>
      <circle id="Ellipse_50" data-name="Ellipse 50" cx="2.5" cy="2.5" r="2.5" transform="translate(130 1919)" fill="#ff9c9c"/>
      <circle id="Ellipse_60" data-name="Ellipse 60" cx="2.5" cy="2.5" r="2.5" transform="translate(130 1936)" fill="#ff9c9c"/>
      <circle id="Ellipse_70" data-name="Ellipse 70" cx="2.5" cy="2.5" r="2.5" transform="translate(130 1953)" fill="#ff9c9c"/>
      <circle id="Ellipse_80" data-name="Ellipse 80" cx="2.5" cy="2.5" r="2.5" transform="translate(130 1970)" fill="#ff9c9c"/>
      <circle id="Ellipse_90" data-name="Ellipse 90" cx="2.5" cy="2.5" r="2.5" transform="translate(130 1987)" fill="#ff9c9c"/>
      <circle id="Ellipse_100" data-name="Ellipse 100" cx="2.5" cy="2.5" r="2.5" transform="translate(130 2004)" fill="#ff9c9c"/>
      <circle id="Ellipse_110" data-name="Ellipse 110" cx="2.5" cy="2.5" r="2.5" transform="translate(130 2020)" fill="#ff9c9c"/>
      <circle id="Ellipse_120" data-name="Ellipse 120" cx="2.5" cy="2.5" r="2.5" transform="translate(130 2037)" fill="#ff9c9c"/>
      <circle id="Ellipse_130" data-name="Ellipse 130" cx="2.5" cy="2.5" r="2.5" transform="translate(130 2054)" fill="#ff9c9c"/>
      <circle id="Ellipse_140" data-name="Ellipse 140" cx="2.5" cy="2.5" r="2.5" transform="translate(130 1886)" fill="#ff9c9c"/>
      <circle id="Ellipse_150" data-name="Ellipse 150" cx="2.5" cy="2.5" r="2.5" transform="translate(130 1886)" fill="#ff9c9c"/>
      <circle id="Ellipse_160" data-name="Ellipse 160" cx="2.5" cy="2.5" r="2.5" transform="translate(130 1869)" fill="#ff9c9c"/>
      <circle id="Ellipse_170" data-name="Ellipse 170" cx="2.5" cy="2.5" r="2.5" transform="translate(130 1869)" fill="#ff9c9c"/>
      <circle id="Ellipse_180" data-name="Ellipse 180" cx="2.5" cy="2.5" r="2.5" transform="translate(130 1852)" fill="#ff9c9c"/>
      <circle id="Ellipse_190" data-name="Ellipse 190" cx="2.5" cy="2.5" r="2.5" transform="translate(130 1852)" fill="#ff9c9c"/>
    </g>
    <g id="Group_21" data-name="Group 21" transform="translate(10)">
      <circle id="Ellipse_31" data-name="Ellipse 31" cx="2.5" cy="2.5" r="2.5" transform="translate(146 1903)" fill="#ff9c9c"/>
      <circle id="Ellipse_41" data-name="Ellipse 41" cx="2.5" cy="2.5" r="2.5" transform="translate(146 1903)" fill="#ff9c9c"/>
      <circle id="Ellipse_51" data-name="Ellipse 51" cx="2.5" cy="2.5" r="2.5" transform="translate(146 1919)" fill="#ff9c9c"/>
      <circle id="Ellipse_61" data-name="Ellipse 61" cx="2.5" cy="2.5" r="2.5" transform="translate(146 1936)" fill="#ff9c9c"/>
      <circle id="Ellipse_71" data-name="Ellipse 71" cx="2.5" cy="2.5" r="2.5" transform="translate(146 1953)" fill="#ff9c9c"/>
      <circle id="Ellipse_81" data-name="Ellipse 81" cx="2.5" cy="2.5" r="2.5" transform="translate(146 1970)" fill="#ff9c9c"/>
      <circle id="Ellipse_91" data-name="Ellipse 91" cx="2.5" cy="2.5" r="2.5" transform="translate(146 1987)" fill="#ff9c9c"/>
      <circle id="Ellipse_101" data-name="Ellipse 101" cx="2.5" cy="2.5" r="2.5" transform="translate(146 2004)" fill="#ff9c9c"/>
      <circle id="Ellipse_111" data-name="Ellipse 111" cx="2.5" cy="2.5" r="2.5" transform="translate(146 2020)" fill="#ff9c9c"/>
      <circle id="Ellipse_121" data-name="Ellipse 121" cx="2.5" cy="2.5" r="2.5" transform="translate(146 2037)" fill="#ff9c9c"/>
      <circle id="Ellipse_131" data-name="Ellipse 131" cx="2.5" cy="2.5" r="2.5" transform="translate(146 2054)" fill="#ff9c9c"/>
      <circle id="Ellipse_141" data-name="Ellipse 141" cx="2.5" cy="2.5" r="2.5" transform="translate(146 1886)" fill="#ff9c9c"/>
      <circle id="Ellipse_151" data-name="Ellipse 151" cx="2.5" cy="2.5" r="2.5" transform="translate(146 1886)" fill="#ff9c9c"/>
      <circle id="Ellipse_161" data-name="Ellipse 161" cx="2.5" cy="2.5" r="2.5" transform="translate(146 1869)" fill="#ff9c9c"/>
      <circle id="Ellipse_171" data-name="Ellipse 171" cx="2.5" cy="2.5" r="2.5" transform="translate(146 1869)" fill="#ff9c9c"/>
      <circle id="Ellipse_181" data-name="Ellipse 181" cx="2.5" cy="2.5" r="2.5" transform="translate(146 1852)" fill="#ff9c9c"/>
      <circle id="Ellipse_191" data-name="Ellipse 191" cx="2.5" cy="2.5" r="2.5" transform="translate(146 1852)" fill="#ff9c9c"/>
    </g>
    <g id="Group_22" data-name="Group 22" transform="translate(14)">
      <circle id="Ellipse_32" data-name="Ellipse 32" cx="2.5" cy="2.5" r="2.5" transform="translate(161 1903)" fill="#ff9c9c"/>
      <circle id="Ellipse_42" data-name="Ellipse 42" cx="2.5" cy="2.5" r="2.5" transform="translate(161 1903)" fill="#ff9c9c"/>
      <circle id="Ellipse_52" data-name="Ellipse 52" cx="2.5" cy="2.5" r="2.5" transform="translate(161 1919)" fill="#ff9c9c"/>
      <circle id="Ellipse_62" data-name="Ellipse 62" cx="2.5" cy="2.5" r="2.5" transform="translate(161 1936)" fill="#ff9c9c"/>
      <circle id="Ellipse_72" data-name="Ellipse 72" cx="2.5" cy="2.5" r="2.5" transform="translate(161 1953)" fill="#ff9c9c"/>
      <circle id="Ellipse_82" data-name="Ellipse 82" cx="2.5" cy="2.5" r="2.5" transform="translate(161 1970)" fill="#ff9c9c"/>
      <circle id="Ellipse_92" data-name="Ellipse 92" cx="2.5" cy="2.5" r="2.5" transform="translate(161 1987)" fill="#ff9c9c"/>
      <circle id="Ellipse_102" data-name="Ellipse 102" cx="2.5" cy="2.5" r="2.5" transform="translate(161 2004)" fill="#ff9c9c"/>
      <circle id="Ellipse_112" data-name="Ellipse 112" cx="2.5" cy="2.5" r="2.5" transform="translate(161 2020)" fill="#ff9c9c"/>
      <circle id="Ellipse_122" data-name="Ellipse 122" cx="2.5" cy="2.5" r="2.5" transform="translate(161 2037)" fill="#ff9c9c"/>
      <circle id="Ellipse_132" data-name="Ellipse 132" cx="2.5" cy="2.5" r="2.5" transform="translate(161 2054)" fill="#ff9c9c"/>
      <circle id="Ellipse_142" data-name="Ellipse 142" cx="2.5" cy="2.5" r="2.5" transform="translate(161 1886)" fill="#ff9c9c"/>
      <circle id="Ellipse_152" data-name="Ellipse 152" cx="2.5" cy="2.5" r="2.5" transform="translate(161 1886)" fill="#ff9c9c"/>
      <circle id="Ellipse_162" data-name="Ellipse 162" cx="2.5" cy="2.5" r="2.5" transform="translate(161 1869)" fill="#ff9c9c"/>
      <circle id="Ellipse_172" data-name="Ellipse 172" cx="2.5" cy="2.5" r="2.5" transform="translate(161 1869)" fill="#ff9c9c"/>
      <circle id="Ellipse_182" data-name="Ellipse 182" cx="2.5" cy="2.5" r="2.5" transform="translate(161 1852)" fill="#ff9c9c"/>
      <circle id="Ellipse_192" data-name="Ellipse 192" cx="2.5" cy="2.5" r="2.5" transform="translate(161 1852)" fill="#ff9c9c"/>
    </g>
    <g id="Group_23" data-name="Group 23" transform="translate(16)">
      <circle id="Ellipse_33" data-name="Ellipse 33" cx="2.5" cy="2.5" r="2.5" transform="translate(177 1903)" fill="#ff9c9c"/>
      <circle id="Ellipse_43" data-name="Ellipse 43" cx="2.5" cy="2.5" r="2.5" transform="translate(177 1903)" fill="#ff9c9c"/>
      <circle id="Ellipse_53" data-name="Ellipse 53" cx="2.5" cy="2.5" r="2.5" transform="translate(177 1919)" fill="#ff9c9c"/>
      <circle id="Ellipse_63" data-name="Ellipse 63" cx="2.5" cy="2.5" r="2.5" transform="translate(177 1936)" fill="#ff9c9c"/>
      <circle id="Ellipse_73" data-name="Ellipse 73" cx="2.5" cy="2.5" r="2.5" transform="translate(177 1953)" fill="#ff9c9c"/>
      <circle id="Ellipse_83" data-name="Ellipse 83" cx="2.5" cy="2.5" r="2.5" transform="translate(177 1970)" fill="#ff9c9c"/>
      <circle id="Ellipse_93" data-name="Ellipse 93" cx="2.5" cy="2.5" r="2.5" transform="translate(177 1987)" fill="#ff9c9c"/>
      <circle id="Ellipse_103" data-name="Ellipse 103" cx="2.5" cy="2.5" r="2.5" transform="translate(177 2004)" fill="#ff9c9c"/>
      <circle id="Ellipse_113" data-name="Ellipse 113" cx="2.5" cy="2.5" r="2.5" transform="translate(177 2020)" fill="#ff9c9c"/>
      <circle id="Ellipse_123" data-name="Ellipse 123" cx="2.5" cy="2.5" r="2.5" transform="translate(177 2037)" fill="#ff9c9c"/>
      <circle id="Ellipse_133" data-name="Ellipse 133" cx="2.5" cy="2.5" r="2.5" transform="translate(177 2054)" fill="#ff9c9c"/>
      <circle id="Ellipse_143" data-name="Ellipse 143" cx="2.5" cy="2.5" r="2.5" transform="translate(177 1886)" fill="#ff9c9c"/>
      <circle id="Ellipse_153" data-name="Ellipse 153" cx="2.5" cy="2.5" r="2.5" transform="translate(177 1886)" fill="#ff9c9c"/>
      <circle id="Ellipse_163" data-name="Ellipse 163" cx="2.5" cy="2.5" r="2.5" transform="translate(177 1869)" fill="#ff9c9c"/>
      <circle id="Ellipse_173" data-name="Ellipse 173" cx="2.5" cy="2.5" r="2.5" transform="translate(177 1869)" fill="#ff9c9c"/>
      <circle id="Ellipse_183" data-name="Ellipse 183" cx="2.5" cy="2.5" r="2.5" transform="translate(177 1852)" fill="#ff9c9c"/>
      <circle id="Ellipse_193" data-name="Ellipse 193" cx="2.5" cy="2.5" r="2.5" transform="translate(177 1852)" fill="#ff9c9c"/>
    </g>
    <g id="Group_24" data-name="Group 24" transform="translate(20)">
      <circle id="Ellipse_34" data-name="Ellipse 34" cx="2.5" cy="2.5" r="2.5" transform="translate(192 1903)" fill="#ff9c9c"/>
      <circle id="Ellipse_44" data-name="Ellipse 44" cx="2.5" cy="2.5" r="2.5" transform="translate(192 1903)" fill="#ff9c9c"/>
      <circle id="Ellipse_54" data-name="Ellipse 54" cx="2.5" cy="2.5" r="2.5" transform="translate(192 1919)" fill="#ff9c9c"/>
      <circle id="Ellipse_64" data-name="Ellipse 64" cx="2.5" cy="2.5" r="2.5" transform="translate(192 1936)" fill="#ff9c9c"/>
      <circle id="Ellipse_74" data-name="Ellipse 74" cx="2.5" cy="2.5" r="2.5" transform="translate(192 1953)" fill="#ff9c9c"/>
      <circle id="Ellipse_84" data-name="Ellipse 84" cx="2.5" cy="2.5" r="2.5" transform="translate(192 1970)" fill="#ff9c9c"/>
      <circle id="Ellipse_94" data-name="Ellipse 94" cx="2.5" cy="2.5" r="2.5" transform="translate(192 1987)" fill="#ff9c9c"/>
      <circle id="Ellipse_104" data-name="Ellipse 104" cx="2.5" cy="2.5" r="2.5" transform="translate(192 2004)" fill="#ff9c9c"/>
      <circle id="Ellipse_114" data-name="Ellipse 114" cx="2.5" cy="2.5" r="2.5" transform="translate(192 2020)" fill="#ff9c9c"/>
      <circle id="Ellipse_124" data-name="Ellipse 124" cx="2.5" cy="2.5" r="2.5" transform="translate(192 2037)" fill="#ff9c9c"/>
      <circle id="Ellipse_134" data-name="Ellipse 134" cx="2.5" cy="2.5" r="2.5" transform="translate(192 2054)" fill="#ff9c9c"/>
      <circle id="Ellipse_144" data-name="Ellipse 144" cx="2.5" cy="2.5" r="2.5" transform="translate(192 1886)" fill="#ff9c9c"/>
      <circle id="Ellipse_154" data-name="Ellipse 154" cx="2.5" cy="2.5" r="2.5" transform="translate(192 1886)" fill="#ff9c9c"/>
      <circle id="Ellipse_164" data-name="Ellipse 164" cx="2.5" cy="2.5" r="2.5" transform="translate(192 1869)" fill="#ff9c9c"/>
      <circle id="Ellipse_174" data-name="Ellipse 174" cx="2.5" cy="2.5" r="2.5" transform="translate(192 1869)" fill="#ff9c9c"/>
      <circle id="Ellipse_184" data-name="Ellipse 184" cx="2.5" cy="2.5" r="2.5" transform="translate(192 1852)" fill="#ff9c9c"/>
      <circle id="Ellipse_194" data-name="Ellipse 194" cx="2.5" cy="2.5" r="2.5" transform="translate(192 1852)" fill="#ff9c9c"/>
    </g>
    <g id="Group_25" data-name="Group 25" transform="translate(23)">
      <circle id="Ellipse_35" data-name="Ellipse 35" cx="2.5" cy="2.5" r="2.5" transform="translate(208 1903)" fill="#ff9c9c"/>
      <circle id="Ellipse_45" data-name="Ellipse 45" cx="2.5" cy="2.5" r="2.5" transform="translate(208 1903)" fill="#ff9c9c"/>
      <circle id="Ellipse_55" data-name="Ellipse 55" cx="2.5" cy="2.5" r="2.5" transform="translate(208 1919)" fill="#ff9c9c"/>
      <circle id="Ellipse_65" data-name="Ellipse 65" cx="2.5" cy="2.5" r="2.5" transform="translate(208 1936)" fill="#ff9c9c"/>
      <circle id="Ellipse_75" data-name="Ellipse 75" cx="2.5" cy="2.5" r="2.5" transform="translate(208 1953)" fill="#ff9c9c"/>
      <circle id="Ellipse_85" data-name="Ellipse 85" cx="2.5" cy="2.5" r="2.5" transform="translate(208 1970)" fill="#ff9c9c"/>
      <circle id="Ellipse_95" data-name="Ellipse 95" cx="2.5" cy="2.5" r="2.5" transform="translate(208 1987)" fill="#ff9c9c"/>
      <circle id="Ellipse_105" data-name="Ellipse 105" cx="2.5" cy="2.5" r="2.5" transform="translate(208 2004)" fill="#ff9c9c"/>
      <circle id="Ellipse_115" data-name="Ellipse 115" cx="2.5" cy="2.5" r="2.5" transform="translate(208 2020)" fill="#ff9c9c"/>
      <circle id="Ellipse_125" data-name="Ellipse 125" cx="2.5" cy="2.5" r="2.5" transform="translate(208 2037)" fill="#ff9c9c"/>
      <circle id="Ellipse_135" data-name="Ellipse 135" cx="2.5" cy="2.5" r="2.5" transform="translate(208 2054)" fill="#ff9c9c"/>
      <circle id="Ellipse_145" data-name="Ellipse 145" cx="2.5" cy="2.5" r="2.5" transform="translate(208 1886)" fill="#ff9c9c"/>
      <circle id="Ellipse_155" data-name="Ellipse 155" cx="2.5" cy="2.5" r="2.5" transform="translate(208 1886)" fill="#ff9c9c"/>
      <circle id="Ellipse_165" data-name="Ellipse 165" cx="2.5" cy="2.5" r="2.5" transform="translate(208 1869)" fill="#ff9c9c"/>
      <circle id="Ellipse_175" data-name="Ellipse 175" cx="2.5" cy="2.5" r="2.5" transform="translate(208 1869)" fill="#ff9c9c"/>
      <circle id="Ellipse_185" data-name="Ellipse 185" cx="2.5" cy="2.5" r="2.5" transform="translate(208 1852)" fill="#ff9c9c"/>
      <circle id="Ellipse_195" data-name="Ellipse 195" cx="2.5" cy="2.5" r="2.5" transform="translate(208 1852)" fill="#ff9c9c"/>
    </g>
    <g id="Group_26" data-name="Group 26" transform="translate(27)">
      <circle id="Ellipse_36" data-name="Ellipse 36" cx="2.5" cy="2.5" r="2.5" transform="translate(223 1903)" fill="#ff9c9c"/>
      <circle id="Ellipse_46" data-name="Ellipse 46" cx="2.5" cy="2.5" r="2.5" transform="translate(223 1903)" fill="#ff9c9c"/>
      <circle id="Ellipse_56" data-name="Ellipse 56" cx="2.5" cy="2.5" r="2.5" transform="translate(223 1919)" fill="#ff9c9c"/>
      <circle id="Ellipse_66" data-name="Ellipse 66" cx="2.5" cy="2.5" r="2.5" transform="translate(223 1936)" fill="#ff9c9c"/>
      <circle id="Ellipse_76" data-name="Ellipse 76" cx="2.5" cy="2.5" r="2.5" transform="translate(223 1953)" fill="#ff9c9c"/>
      <circle id="Ellipse_86" data-name="Ellipse 86" cx="2.5" cy="2.5" r="2.5" transform="translate(223 1970)" fill="#ff9c9c"/>
      <circle id="Ellipse_96" data-name="Ellipse 96" cx="2.5" cy="2.5" r="2.5" transform="translate(223 1987)" fill="#ff9c9c"/>
      <circle id="Ellipse_106" data-name="Ellipse 106" cx="2.5" cy="2.5" r="2.5" transform="translate(223 2004)" fill="#ff9c9c"/>
      <circle id="Ellipse_116" data-name="Ellipse 116" cx="2.5" cy="2.5" r="2.5" transform="translate(223 2020)" fill="#ff9c9c"/>
      <circle id="Ellipse_126" data-name="Ellipse 126" cx="2.5" cy="2.5" r="2.5" transform="translate(223 2037)" fill="#ff9c9c"/>
      <circle id="Ellipse_136" data-name="Ellipse 136" cx="2.5" cy="2.5" r="2.5" transform="translate(223 2054)" fill="#ff9c9c"/>
      <circle id="Ellipse_146" data-name="Ellipse 146" cx="2.5" cy="2.5" r="2.5" transform="translate(223 1886)" fill="#ff9c9c"/>
      <circle id="Ellipse_156" data-name="Ellipse 156" cx="2.5" cy="2.5" r="2.5" transform="translate(223 1886)" fill="#ff9c9c"/>
      <circle id="Ellipse_166" data-name="Ellipse 166" cx="2.5" cy="2.5" r="2.5" transform="translate(223 1869)" fill="#ff9c9c"/>
      <circle id="Ellipse_176" data-name="Ellipse 176" cx="2.5" cy="2.5" r="2.5" transform="translate(223 1869)" fill="#ff9c9c"/>
      <circle id="Ellipse_186" data-name="Ellipse 186" cx="2.5" cy="2.5" r="2.5" transform="translate(223 1852)" fill="#ff9c9c"/>
      <circle id="Ellipse_196" data-name="Ellipse 196" cx="2.5" cy="2.5" r="2.5" transform="translate(223 1852)" fill="#ff9c9c"/>
    </g>
    <g id="Group_27" data-name="Group 27" transform="translate(30)">
      <circle id="Ellipse_37" data-name="Ellipse 37" cx="2.5" cy="2.5" r="2.5" transform="translate(239 1903)" fill="#ff9c9c"/>
      <circle id="Ellipse_47" data-name="Ellipse 47" cx="2.5" cy="2.5" r="2.5" transform="translate(239 1903)" fill="#ff9c9c"/>
      <circle id="Ellipse_57" data-name="Ellipse 57" cx="2.5" cy="2.5" r="2.5" transform="translate(239 1919)" fill="#ff9c9c"/>
      <circle id="Ellipse_67" data-name="Ellipse 67" cx="2.5" cy="2.5" r="2.5" transform="translate(239 1936)" fill="#ff9c9c"/>
      <circle id="Ellipse_77" data-name="Ellipse 77" cx="2.5" cy="2.5" r="2.5" transform="translate(239 1953)" fill="#ff9c9c"/>
      <circle id="Ellipse_87" data-name="Ellipse 87" cx="2.5" cy="2.5" r="2.5" transform="translate(239 1970)" fill="#ff9c9c"/>
      <circle id="Ellipse_97" data-name="Ellipse 97" cx="2.5" cy="2.5" r="2.5" transform="translate(239 1987)" fill="#ff9c9c"/>
      <circle id="Ellipse_107" data-name="Ellipse 107" cx="2.5" cy="2.5" r="2.5" transform="translate(239 2004)" fill="#ff9c9c"/>
      <circle id="Ellipse_117" data-name="Ellipse 117" cx="2.5" cy="2.5" r="2.5" transform="translate(239 2020)" fill="#ff9c9c"/>
      <circle id="Ellipse_127" data-name="Ellipse 127" cx="2.5" cy="2.5" r="2.5" transform="translate(239 2037)" fill="#ff9c9c"/>
      <circle id="Ellipse_137" data-name="Ellipse 137" cx="2.5" cy="2.5" r="2.5" transform="translate(239 2054)" fill="#ff9c9c"/>
      <circle id="Ellipse_147" data-name="Ellipse 147" cx="2.5" cy="2.5" r="2.5" transform="translate(239 1886)" fill="#ff9c9c"/>
      <circle id="Ellipse_157" data-name="Ellipse 157" cx="2.5" cy="2.5" r="2.5" transform="translate(239 1886)" fill="#ff9c9c"/>
      <circle id="Ellipse_167" data-name="Ellipse 167" cx="2.5" cy="2.5" r="2.5" transform="translate(239 1869)" fill="#ff9c9c"/>
      <circle id="Ellipse_177" data-name="Ellipse 177" cx="2.5" cy="2.5" r="2.5" transform="translate(239 1869)" fill="#ff9c9c"/>
      <circle id="Ellipse_187" data-name="Ellipse 187" cx="2.5" cy="2.5" r="2.5" transform="translate(239 1852)" fill="#ff9c9c"/>
      <circle id="Ellipse_197" data-name="Ellipse 197" cx="2.5" cy="2.5" r="2.5" transform="translate(239 1852)" fill="#ff9c9c"/>
    </g>
  </g>
</svg>
