<svg xmlns="http://www.w3.org/2000/svg" width="51" height="51" viewBox="0 0 51 51">
  <g id="Flexible_learning" data-name="Flexible learning" transform="translate(-789 -1056.5)">
    <circle id="Ellipse_16" data-name="Ellipse 16" cx="25.5" cy="25.5" r="25.5" transform="translate(789 1056.5)" fill="#fff"/>
    <g id="alarm-clock" transform="translate(798.441 1066.501)">
      <g id="Group_9" data-name="Group 9" transform="translate(3.755 4.545)">
        <g id="Group_8" data-name="Group 8">
          <path id="Path_10" data-name="Path 10" d="M72.465,89.159a12.569,12.569,0,1,0-18.15,0l-3.266,4.354a1.143,1.143,0,0,0,1.828,1.371l3.165-4.221a12.477,12.477,0,0,0,14.695,0L73.9,94.884a1.143,1.143,0,1,0,1.828-1.371Zm-7.932-8.673a1.143,1.143,0,0,1-.229.686l-3.428,4.571a1.143,1.143,0,1,1-1.828-1.371l3.2-4.266V73.63a1.143,1.143,0,1,1,2.285,0v6.856Z" transform="translate(-50.821 -67.893)" fill="#fa6400"/>
        </g>
      </g>
      <g id="Group_11" data-name="Group 11" transform="translate(0.378 0.049)">
        <g id="Group_10" data-name="Group 10" transform="translate(0)">
          <path id="Path_11" data-name="Path 11" d="M10.08,2.369A5.713,5.713,0,0,0,2,10.448a1.143,1.143,0,0,0,1.616,0L10.08,3.985A1.143,1.143,0,0,0,10.08,2.369Z" transform="translate(-0.378 -0.746)" fill="#fa6400"/>
        </g>
      </g>
      <g id="Group_13" data-name="Group 13" transform="translate(22.235 -0.001)">
        <g id="Group_12" data-name="Group 12" transform="translate(0 0)">
          <path id="Path_12" data-name="Path 12" d="M335.241,1.672a5.713,5.713,0,0,0-8.079,0,1.143,1.143,0,0,0,0,1.616l6.463,6.463a1.143,1.143,0,0,0,1.616,0A5.713,5.713,0,0,0,335.241,1.672Z" transform="translate(-326.828 0.001)" fill="#fa6400"/>
        </g>
      </g>
    </g>
  </g>
</svg>
