<svg id="instagram" xmlns="http://www.w3.org/2000/svg" width="16.466" height="16.466" viewBox="0 0 16.466 16.466">
  <path id="Path_109" data-name="Path 109" d="M12.008,0H4.456A4.462,4.462,0,0,0,0,4.457v7.552a4.462,4.462,0,0,0,4.457,4.457h7.552a4.462,4.462,0,0,0,4.457-4.457V4.457A4.462,4.462,0,0,0,12.008,0ZM8.232,12.736a4.5,4.5,0,1,1,4.5-4.5A4.507,4.507,0,0,1,8.232,12.736Zm4.61-7.943a1.33,1.33,0,1,1,1.331-1.33A1.332,1.332,0,0,1,12.842,4.793Zm0,0" transform="translate(0.001 0)" fill="#fff"/>
  <path id="Path_110" data-name="Path 110" d="M149.557,146.02a3.537,3.537,0,1,0,3.537,3.537A3.541,3.541,0,0,0,149.557,146.02Zm0,0" transform="translate(-141.324 -141.324)" fill="#fff"/>
  <path id="Path_111" data-name="Path 111" d="M388.358,96.3a.365.365,0,1,0,.365.365A.366.366,0,0,0,388.358,96.3Zm0,0" transform="translate(-375.514 -93.204)" fill="#fff"/>
</svg>
