<svg xmlns="http://www.w3.org/2000/svg" width="51" height="51" viewBox="0 0 51 51">
  <g id="Learn_anything" data-name="Learn anything" transform="translate(-1039 -799.5)">
    <circle id="Ellipse_15" data-name="Ellipse 15" cx="25.5" cy="25.5" r="25.5" transform="translate(1039 799.5)" fill="#fff"/>
    <g id="book-of-black-cover-closed" transform="translate(1014.788 809)">
      <path id="Path_9" data-name="Path 9" d="M40.533,25.687H62.451a.837.837,0,0,0,.195-.024h.014a.848.848,0,0,0,.848-.848V.848A.848.848,0,0,0,62.659,0H40.534a4.1,4.1,0,0,0-4.093,4.093.864.864,0,0,0,.009.088c0,2.084-.029,21.238,0,23.756,0,.049-.008.1-.008.147a4.1,4.1,0,0,0,3.836,4.08.841.841,0,0,0,.129.013H62.659a.848.848,0,0,0,.848-.848V28.137a.848.848,0,0,0-1.7,0v2.344H40.533a2.4,2.4,0,0,1-2.392-2.3c0-.023.005-.044,0-.067s0-.1,0-.172A2.4,2.4,0,0,1,40.533,25.687Zm.578-21.594a.848.848,0,0,1,1.7,0V21.318a.848.848,0,1,1-1.7,0Z" transform="translate(0)" fill="#f7b300"/>
    </g>
  </g>
</svg>
