<svg xmlns="http://www.w3.org/2000/svg" width="51" height="51" viewBox="0 0 51 51">
  <g id="Learn_with_experts" data-name="Learn with experts" transform="translate(-789 -799.5)">
    <circle id="Ellipse_14" data-name="Ellipse 14" cx="25.5" cy="25.5" r="25.5" transform="translate(789 799.5)" fill="#fff"/>
    <g id="man-with-tie-profile" transform="translate(724.18 807.499)">
      <path id="Path_5" data-name="Path 5" d="M100.227,252.491,98.578,252a1.1,1.1,0,0,1-.2.736l-.272.358L94.8,257.448a1.137,1.137,0,0,1-.926.441h0a1.116,1.116,0,0,1-.9-.508l-.481-.743-1.031.912H89.007l-1.016-.9-.472.729a1.136,1.136,0,0,1-.936.509,1.122,1.122,0,0,1-.888-.441l-3.306-4.355-.272-.358a1.1,1.1,0,0,1-.2-.736l-1.646.491A2.307,2.307,0,0,0,78.62,254.7v1.917a11.628,11.628,0,1,0,23.255,0V254.7A2.307,2.307,0,0,0,100.227,252.491ZM90.271,267.52a1,1,0,0,1-.855-.5.957.957,0,0,1-.067-.11l-1.336-3.154.824-5.51h2.869l.824,5.51-1.336,3.154a.965.965,0,0,1-.066.108A.994.994,0,0,1,90.271,267.52Z" transform="translate(0 -233.359)" fill="#2cb697"/>
      <path id="Path_6" data-name="Path 6" d="M132.639,234.38l-1.542.916a.523.523,0,0,0-.149.765l3.578,4.713a.523.523,0,0,0,.416.207h.02a.523.523,0,0,0,.419-.238l1.9-2.934A8.281,8.281,0,0,1,132.639,234.38Z" transform="translate(-48.359 -217.044)" fill="#2cb697"/>
      <path id="Path_7" data-name="Path 7" d="M258.369,234.4a8.276,8.276,0,0,1-4.642,3.429l1.9,2.933a.523.523,0,0,0,.42.238h.02a.521.521,0,0,0,.415-.207l3.579-4.713a.522.522,0,0,0-.149-.765Z" transform="translate(-162.156 -217.059)" fill="#2cb697"/>
      <path id="Path_8" data-name="Path 8" d="M119.017,14.469c1.218,2.613,3.459,5.289,6.28,5.289s5.059-2.672,6.278-5.283a3.389,3.389,0,0,0,2.309-2.315c.575-1.654.1-3.279-1.075-3.767.26-1.887.34-5.482-4.1-6.761A3.987,3.987,0,0,0,125.971.05a5.518,5.518,0,0,0-1.722.042,10.029,10.029,0,0,0-3.443,1.372,6.286,6.286,0,0,0-3.011,6.91s0,.006,0,.01A2.164,2.164,0,0,0,116.578,9.9a3.929,3.929,0,0,0,.135,2.264A3.383,3.383,0,0,0,119.017,14.469ZM117.724,10.2a1.01,1.01,0,0,1,.551-.728c.036-.013.306-.085.409-.109,2.633-.6,8.859-1.728,9.624-4.895a8.4,8.4,0,0,0,3.429,4.7,3.37,3.37,0,0,0,.584.3c.525.183.837,1.173.445,2.3-.353,1.011-1.07,1.556-1.578,1.556h0a.592.592,0,0,0-.554.356c-1.031,2.364-2.973,4.891-5.335,4.891s-4.3-2.526-5.335-4.891a.628.628,0,0,0-.569-.356c-.495,0-1.21-.545-1.562-1.556A2.777,2.777,0,0,1,117.724,10.2Z" transform="translate(-35.05 0)" fill="#2cb697"/>
    </g>
  </g>
</svg>
