<svg xmlns="http://www.w3.org/2000/svg" width="12.434" height="13.564" viewBox="0 0 12.434 13.564">
  <g id="List" transform="translate(-1)">
    <path id="Path_15" data-name="Path 15" d="M2.7,3.815A2.688,2.688,0,0,1,5.38,1.13h5.162A1.551,1.551,0,0,0,9.054,0h-6.5A1.555,1.555,0,0,0,1,1.554v8.76a1.555,1.555,0,0,0,1.554,1.554H2.7Z" fill="#303e67"/>
    <path id="Path_16" data-name="Path 16" d="M14.054,4h-6.5A1.555,1.555,0,0,0,6,5.554v8.195A1.555,1.555,0,0,0,7.554,15.3h6.5a1.555,1.555,0,0,0,1.554-1.554V5.554A1.555,1.555,0,0,0,14.054,4Zm-1.13,9.608H8.685a.424.424,0,1,1,0-.848h4.239a.424.424,0,1,1,0,.848Zm0-2.261H8.685a.424.424,0,1,1,0-.848h4.239a.424.424,0,1,1,0,.848Zm0-1.978H8.685a.424.424,0,0,1,0-.848h4.239a.424.424,0,1,1,0,.848Zm0-2.261H8.685a.424.424,0,0,1,0-.848h4.239a.424.424,0,0,1,0,.848Z" transform="translate(-2.174 -1.739)" fill="#303e67"/>
  </g>
</svg>
