<svg xmlns="http://www.w3.org/2000/svg" width="18.716" height="13.16" viewBox="0 0 18.716 13.16">
  <g id="mail_1_" data-name="mail (1)" transform="translate(0 -76)">
    <g id="Group_197" data-name="Group 197" transform="translate(12.875 76.94)">
      <g id="Group_196" data-name="Group 196" transform="translate(0 0)">
        <path id="Path_447" data-name="Path 447" d="M357.887,101.721l-5.676,5.64,5.676,5.64a1.626,1.626,0,0,0,.165-.7v-9.87A1.626,1.626,0,0,0,357.887,101.721Z" transform="translate(-352.211 -101.721)" fill="#fff"/>
      </g>
    </g>
    <g id="Group_199" data-name="Group 199" transform="translate(0.94 76)">
      <g id="Group_198" data-name="Group 198">
        <path id="Path_448" data-name="Path 448" d="M41.852,76H26.426a1.626,1.626,0,0,0-.7.165l7.255,7.218a1.646,1.646,0,0,0,2.326,0l7.255-7.218A1.626,1.626,0,0,0,41.852,76Z" transform="translate(-25.721 -76)" fill="#fff"/>
      </g>
    </g>
    <g id="Group_201" data-name="Group 201" transform="translate(0 76.94)">
      <g id="Group_200" data-name="Group 200" transform="translate(0 0)">
        <path id="Path_449" data-name="Path 449" d="M.165,101.721a1.626,1.626,0,0,0-.165.7v9.87a1.626,1.626,0,0,0,.165.7l5.676-5.64Z" transform="translate(0 -101.721)" fill="#fff"/>
      </g>
    </g>
    <g id="Group_203" data-name="Group 203" transform="translate(0.94 83.355)">
      <g id="Group_202" data-name="Group 202" transform="translate(0 0)">
        <path id="Path_450" data-name="Path 450" d="M36.88,277.211l-.8.8a2.744,2.744,0,0,1-3.877,0l-.8-.8-5.676,5.64a1.626,1.626,0,0,0,.7.165H41.852a1.626,1.626,0,0,0,.7-.165Z" transform="translate(-25.721 -277.211)" fill="#fff"/>
      </g>
    </g>
  </g>
</svg>
