<svg xmlns="http://www.w3.org/2000/svg" xmlns:xlink="http://www.w3.org/1999/xlink" width="64" height="64" viewBox="0 0 64 64">
  <defs>
    <filter id="Ellipse_10" x="0" y="0" width="64" height="64" filterUnits="userSpaceOnUse">
      <feOffset dy="3" input="SourceAlpha"/>
      <feGaussianBlur stdDeviation="3" result="blur"/>
      <feFlood flood-opacity="0.161"/>
      <feComposite operator="in" in2="blur"/>
      <feComposite in="SourceGraphic"/>
    </filter>
  </defs>
  <g id="PLay_button" data-name="PLay button" transform="translate(-322 -1099)">
    <g transform="matrix(1, 0, 0, 1, 322, 1099)" filter="url(#Ellipse_10)">
      <circle id="Ellipse_10-2" data-name="Ellipse 10" cx="23" cy="23" r="23" transform="translate(9 6)" fill="#0f0f0f" opacity="0.65"/>
    </g>
    <g id="play_1_" data-name="play (1)" transform="translate(287.48 1120)">
      <g id="Group_3" data-name="Group 3" transform="translate(61.52)">
        <path id="Path_4" data-name="Path 4" d="M73.283,6.884,63.891.454A2.293,2.293,0,0,0,62.657,0c-.7,0-1.137.564-1.137,1.507V15.4c0,.942.434,1.5,1.135,1.5a2.274,2.274,0,0,0,1.229-.455l9.4-6.43a1.928,1.928,0,0,0,.939-1.57A1.921,1.921,0,0,0,73.283,6.884Z" transform="translate(-61.52)" fill="#fff"/>
      </g>
    </g>
  </g>
</svg>
