<svg xmlns="http://www.w3.org/2000/svg" width="16.076" height="16.077" viewBox="0 0 16.076 16.077">
  <g id="telephone" transform="translate(-0.006)">
    <g id="Group_195" data-name="Group 195" transform="translate(0.006)">
      <path id="Path_444" data-name="Path 444" d="M12.228,55.229a1.126,1.126,0,0,0-1.7,0c-.4.395-.8.79-1.188,1.191a.235.235,0,0,1-.328.06c-.258-.141-.532-.254-.779-.408a12.35,12.35,0,0,1-2.977-2.71,7.054,7.054,0,0,1-1.067-1.709.245.245,0,0,1,.06-.314c.4-.385.786-.779,1.178-1.174a1.131,1.131,0,0,0,0-1.743c-.311-.314-.622-.622-.933-.937s-.639-.646-.963-.963a1.134,1.134,0,0,0-1.7,0c-.4.395-.786.8-1.194,1.188A1.939,1.939,0,0,0,.017,49.02a5.542,5.542,0,0,0,.428,2.385,14.494,14.494,0,0,0,2.573,4.285,15.92,15.92,0,0,0,5.272,4.125,7.625,7.625,0,0,0,2.921.85,2.14,2.14,0,0,0,1.837-.7c.341-.381.726-.729,1.087-1.094a1.138,1.138,0,0,0,.007-1.733Q13.188,56.181,12.228,55.229Z" transform="translate(-0.006 -44.594)" fill="#fff"/>
      <path id="Path_445" data-name="Path 445" d="M241.48,100.757l1.234-.211A5.541,5.541,0,0,0,238.028,96l-.174,1.241a4.282,4.282,0,0,1,3.626,3.516Z" transform="translate(-229.897 -92.788)" fill="#fff"/>
      <path id="Path_446" data-name="Path 446" d="M248.147,2.6A9.1,9.1,0,0,0,242.928,0l-.174,1.241a7.943,7.943,0,0,1,6.721,6.513l1.234-.211A9.169,9.169,0,0,0,248.147,2.6Z" transform="translate(-234.633)" fill="#fff"/>
    </g>
  </g>
</svg>
