<svg id="twitter" xmlns="http://www.w3.org/2000/svg" width="19.299" height="15.68" viewBox="0 0 19.299 15.68">
  <g id="Group_85" data-name="Group 85" transform="translate(0 0)">
    <path id="Path_108" data-name="Path 108" d="M19.3,49.856a8.249,8.249,0,0,1-2.28.625,3.934,3.934,0,0,0,1.74-2.187,7.907,7.907,0,0,1-2.509.958,3.956,3.956,0,0,0-6.844,2.705,4.074,4.074,0,0,0,.092.9,11.2,11.2,0,0,1-8.155-4.138,3.957,3.957,0,0,0,1.216,5.288,3.907,3.907,0,0,1-1.788-.487v.043a3.975,3.975,0,0,0,3.17,3.887,3.948,3.948,0,0,1-1.037.13,3.5,3.5,0,0,1-.749-.068,3.994,3.994,0,0,0,3.7,2.756A7.95,7.95,0,0,1,.947,61.959,7.411,7.411,0,0,1,0,61.9,11.138,11.138,0,0,0,6.069,63.68,11.183,11.183,0,0,0,17.33,52.422c0-.175-.006-.344-.014-.511A7.893,7.893,0,0,0,19.3,49.856Z" transform="translate(0 -48)" fill="#fff"/>
  </g>
</svg>
